# Blender 5.0.0
# www.blender.org
o light_right
v 1.476711 6.108510 7.141188
v 1.476712 8.341310 0.640446
v -5.396791 6.108506 7.141185
v -5.396790 8.341305 0.640444
vn -0.0000 -0.9458 -0.3248
vt 0.000000 0.000000
vt 1.000000 0.000000
vt 1.000000 1.000000
vt 0.000000 1.000000
s 0
f 1/1/1 3/4/1 4/3/1 2/2/1
o light_left
v -1.937377 -4.408394 4.282640
v -1.937377 -4.134720 4.433274
v -2.249768 -4.408394 4.282640
v -2.249768 -4.134720 4.433274
vn -0.0000 0.4822 -0.8761
vt 0.000000 0.000000
vt 1.000000 0.000000
vt 1.000000 1.000000
vt 0.000000 1.000000
s 0
f 5/5/2 7/8/2 8/7/2 6/6/2
o sidepanel
v -6.342116 0.054048 -1.854782
v -6.342116 0.054048 8.056864
v 2.038795 0.054048 -1.854782
v 2.038795 0.054048 8.056864
v -6.342116 -0.043293 -1.854782
v -6.342116 -0.043293 8.056864
v 2.038795 -0.043293 -1.854782
v 2.038795 -0.043293 8.056864
vn -0.0000 1.0000 -0.0000
vn 1.0000 -0.0000 -0.0000
vn -0.0000 -1.0000 -0.0000
vn -1.0000 -0.0000 -0.0000
vn -0.0000 -0.0000 -1.0000
vn -0.0000 -0.0000 1.0000
vt 0.375000 0.000000
vt 0.625000 0.000000
vt 0.625000 0.250000
vt 0.375000 0.250000
vt 0.625000 0.500000
vt 0.375000 0.500000
vt 0.625000 0.750000
vt 0.375000 0.750000
vt 0.625000 1.000000
vt 0.375000 1.000000
vt 0.125000 0.500000
vt 0.125000 0.750000
vt 0.875000 0.500000
vt 0.875000 0.750000
s 0
f 9/9/3 10/10/3 12/11/3 11/12/3
f 11/12/4 12/11/4 16/13/4 15/14/4
f 15/14/5 16/13/5 14/15/5 13/16/5
f 13/16/6 14/15/6 10/17/6 9/18/6
f 11/19/7 15/14/7 13/16/7 9/20/7
f 16/13/8 12/21/8 10/22/8 14/15/8
