# Blender 5.1.1
# www.blender.org
o back_panel.001
v -17.015448 -4.451458 1.250414
v -16.783169 -4.451458 1.305531
v -15.022185 -4.451458 -7.149740
v -14.789906 -4.451458 -7.094623
v -17.015448 4.181948 1.250414
v -16.783169 4.181948 1.305531
v -15.022185 4.181948 -7.149740
v -14.789906 4.181948 -7.094623
vn -0.9730 -0.0000 -0.2309
vn 0.2309 -0.0000 -0.9730
vn -0.0000 1.0000 -0.0000
vn 0.9730 -0.0000 0.2309
vn -0.0000 -1.0000 -0.0000
vn -0.2309 -0.0000 0.9730
vt 0.625000 0.500000
vt 0.875000 0.500000
vt 0.875000 0.750000
vt 0.625000 0.750000
vt 0.375000 0.750000
vt 0.625000 1.000000
vt 0.375000 1.000000
vt 0.375000 0.000000
vt 0.625000 0.000000
vt 0.625000 0.250000
vt 0.375000 0.250000
vt 0.125000 0.500000
vt 0.375000 0.500000
vt 0.125000 0.750000
s 0
f 1/1/1 5/2/1 7/3/1 3/4/1
f 4/5/2 3/4/2 7/6/2 8/7/2
f 8/8/3 7/9/3 5/10/3 6/11/3
f 6/12/4 2/13/4 4/5/4 8/14/4
f 2/13/5 1/1/5 3/4/5 4/5/5
f 6/11/6 5/10/6 1/1/6 2/13/6
o bottom_panel.001
v -6.533451 -4.451458 -5.012780
v -6.478333 -4.451458 -5.245059
v -14.933605 -4.451458 -7.006043
v -14.878487 -4.451458 -7.238323
v -6.533451 4.181948 -5.012780
v -6.478333 4.181948 -5.245059
v -14.933605 4.181948 -7.006043
v -14.878487 4.181948 -7.238323
vn -0.2309 -0.0000 0.9730
vn -0.9730 -0.0000 -0.2309
vn -0.0000 1.0000 -0.0000
vn 0.2309 -0.0000 -0.9730
vn -0.0000 -1.0000 -0.0000
vn 0.9730 -0.0000 0.2309
vt 0.625000 0.500000
vt 0.875000 0.500000
vt 0.875000 0.750000
vt 0.625000 0.750000
vt 0.375000 0.750000
vt 0.625000 1.000000
vt 0.375000 1.000000
vt 0.375000 0.000000
vt 0.625000 0.000000
vt 0.625000 0.250000
vt 0.375000 0.250000
vt 0.125000 0.500000
vt 0.375000 0.500000
vt 0.125000 0.750000
s 0
f 9/15/7 13/16/7 15/17/7 11/18/7
f 12/19/8 11/18/8 15/20/8 16/21/8
f 16/22/9 15/23/9 13/24/9 14/25/9
f 14/26/10 10/27/10 12/19/10 16/28/10
f 10/27/11 9/15/11 11/18/11 12/19/11
f 14/25/12 13/24/12 9/15/12 10/27/12
o central_light.001
v -11.995008 -1.346829 2.280280
v -11.995008 1.068915 2.280280
v -14.345485 -1.346829 1.722537
v -14.345485 1.068915 1.722537
vn 0.2309 -0.0000 -0.9730
vt 0.000000 0.000000
vt 1.000000 0.000000
vt 1.000000 1.000000
vt 0.000000 1.000000
s 0
f 17/29/13 19/32/13 20/31/13 18/30/13
o left_panel.001
v -6.505892 -4.570823 -5.128920
v -6.505892 -4.332093 -5.128920
v -14.906046 -4.570823 -7.122182
v -14.906046 -4.332093 -7.122182
v -8.499155 -4.570823 3.271235
v -8.499155 -4.332093 3.271235
v -16.899309 -4.570823 1.277972
v -16.899309 -4.332093 1.277972
vn -0.0000 -1.0000 -0.0000
vn -0.9730 -0.0000 -0.2309
vn -0.2309 -0.0000 0.9730
vn -0.0000 1.0000 -0.0000
vn 0.2309 -0.0000 -0.9730
vn 0.9730 -0.0000 0.2309
vt 0.625000 0.500000
vt 0.875000 0.500000
vt 0.875000 0.750000
vt 0.625000 0.750000
vt 0.375000 0.750000
vt 0.625000 1.000000
vt 0.375000 1.000000
vt 0.375000 0.000000
vt 0.625000 0.000000
vt 0.625000 0.250000
vt 0.375000 0.250000
vt 0.125000 0.500000
vt 0.375000 0.500000
vt 0.125000 0.750000
s 0
f 21/33/14 25/34/14 27/35/14 23/36/14
f 24/37/15 23/36/15 27/38/15 28/39/15
f 28/40/16 27/41/16 25/42/16 26/43/16
f 26/44/17 22/45/17 24/37/17 28/46/17
f 22/45/18 21/33/18 23/36/18 24/37/18
f 26/43/19 25/42/19 21/33/19 22/45/19
o right_panel.001
v -8.499155 4.301313 3.271235
v -8.499155 4.062583 3.271235
v -16.899309 4.301313 1.277972
v -16.899309 4.062583 1.277972
v -6.505892 4.301313 -5.128920
v -6.505892 4.062583 -5.128920
v -14.906046 4.301313 -7.122182
v -14.906046 4.062583 -7.122182
vn -0.0000 1.0000 -0.0000
vn -0.9730 -0.0000 -0.2309
vn 0.2309 -0.0000 -0.9730
vn -0.0000 -1.0000 -0.0000
vn -0.2309 -0.0000 0.9730
vn 0.9730 -0.0000 0.2309
vt 0.625000 0.500000
vt 0.875000 0.500000
vt 0.875000 0.750000
vt 0.625000 0.750000
vt 0.375000 0.750000
vt 0.625000 1.000000
vt 0.375000 1.000000
vt 0.375000 0.000000
vt 0.625000 0.000000
vt 0.625000 0.250000
vt 0.375000 0.250000
vt 0.125000 0.500000
vt 0.375000 0.500000
vt 0.125000 0.750000
s 0
f 29/47/20 33/48/20 35/49/20 31/50/20
f 32/51/21 31/50/21 35/52/21 36/53/21
f 36/54/22 35/55/22 33/56/22 34/57/22
f 34/58/23 30/59/23 32/51/23 36/60/23
f 30/59/24 29/47/24 31/50/24 32/51/24
f 34/57/25 33/56/25 29/47/25 30/59/25
o top_panel.001
v -8.529289 -4.451458 3.398226
v -8.474171 -4.451458 3.165946
v -16.929443 -4.451458 1.404963
v -16.874325 -4.451458 1.172683
v -8.529289 4.181948 3.398226
v -8.474171 4.181948 3.165946
v -16.929443 4.181948 1.404963
v -16.874325 4.181948 1.172683
vn -0.2309 -0.0000 0.9730
vn -0.9730 -0.0000 -0.2309
vn -0.0000 1.0000 -0.0000
vn 0.2309 -0.0000 -0.9730
vn -0.0000 -1.0000 -0.0000
vn 0.9730 -0.0000 0.2309
vt 0.625000 0.500000
vt 0.875000 0.500000
vt 0.875000 0.750000
vt 0.625000 0.750000
vt 0.375000 0.750000
vt 0.625000 1.000000
vt 0.375000 1.000000
vt 0.375000 0.000000
vt 0.625000 0.000000
vt 0.625000 0.250000
vt 0.375000 0.250000
vt 0.125000 0.500000
vt 0.375000 0.500000
vt 0.125000 0.750000
s 0
f 37/61/26 41/62/26 43/63/26 39/64/26
f 40/65/27 39/64/27 43/66/27 44/67/27
f 44/68/28 43/69/28 41/70/28 42/71/28
f 42/72/29 38/73/29 40/65/29 44/74/29
f 38/73/30 37/61/30 39/64/30 40/65/30
f 42/71/31 41/70/31 37/61/31 38/73/31
