# Blender 5.1.0
# www.blender.org
o prism_angled
v 1.606721 -0.425267 0.107899
v -0.425267 -1.606721 0.107899
v -1.606721 0.425267 0.107899
v 0.425267 1.606721 0.107899
v 0.000000 0.000000 2.107899
vn 0.4334 -0.7453 0.5066
vn -0.7453 -0.4334 0.5066
vn -0.0000 -0.0000 -1.0000
vn -0.4334 0.7453 0.5066
vn 0.7453 0.4334 0.5066
vt 0.250000 0.490000
vt 0.250000 0.250000
vt 0.490000 0.250000
vt 0.250000 0.010000
vt 0.750000 0.490000
vt 0.990000 0.250000
vt 0.750000 0.010000
vt 0.510000 0.250000
vt 0.010000 0.250000
s 0
f 1/1/1 5/2/1 2/3/1
f 2/3/2 5/2/2 3/4/2
f 1/5/3 2/6/3 3/7/3 4/8/3
f 3/4/4 5/2/4 4/9/4
f 4/9/5 5/2/5 1/1/5
o cube_angled
v -1.367136 0.361854 0.072025
v -1.367136 0.361854 2.072025
v 0.361854 1.367136 0.072025
v 0.361854 1.367136 2.072025
v -0.361854 -1.367136 0.072025
v -0.361854 -1.367136 2.072025
v 1.367136 -0.361854 0.072025
v 1.367136 -0.361854 2.072025
vn -0.5026 0.8645 -0.0000
vn 0.8645 0.5026 -0.0000
vn 0.5026 -0.8645 -0.0000
vn -0.8645 -0.5026 -0.0000
vn -0.0000 -0.0000 -1.0000
vn -0.0000 -0.0000 1.0000
vt 0.375000 0.000000
vt 0.625000 0.000000
vt 0.625000 0.250000
vt 0.375000 0.250000
vt 0.625000 0.500000
vt 0.375000 0.500000
vt 0.625000 0.750000
vt 0.375000 0.750000
vt 0.625000 1.000000
vt 0.375000 1.000000
vt 0.125000 0.500000
vt 0.125000 0.750000
vt 0.875000 0.500000
vt 0.875000 0.750000
s 0
f 6/10/6 7/11/6 9/12/6 8/13/6
f 8/13/7 9/12/7 13/14/7 12/15/7
f 12/15/8 13/14/8 11/16/8 10/17/8
f 10/17/9 11/16/9 7/18/9 6/19/9
f 8/20/10 12/15/10 10/17/10 6/21/10
f 13/14/11 9/22/11 7/23/11 11/16/11
