# Blender 5.1.0
# www.blender.org
o prism_angled
v 2.334980 1.371383 0.104181
v 1.928345 -0.943666 0.104181
v -0.386704 -0.537031 0.104181
v 0.019931 1.778019 0.104181
v 0.974138 0.417176 2.104181
vn 0.8492 -0.1492 0.5066
vn -0.1492 -0.8492 0.5066
vn -0.0000 -0.0000 -1.0000
vn -0.8492 0.1492 0.5066
vn 0.1492 0.8492 0.5066
vt 0.250000 0.490000
vt 0.250000 0.250000
vt 0.490000 0.250000
vt 0.250000 0.010000
vt 0.750000 0.490000
vt 0.990000 0.250000
vt 0.750000 0.010000
vt 0.510000 0.250000
vt 0.010000 0.250000
s 0
f 1/1/1 5/2/1 2/3/1
f 2/3/2 5/2/2 3/4/2
f 1/5/3 2/6/3 3/7/3 4/8/3
f 3/4/4 5/2/4 4/9/4
f 4/9/5 5/2/5 1/1/5
o cube_angled
v -0.183784 -0.394745 0.068307
v -0.183784 -0.394745 2.068307
v 0.162216 1.575098 0.068307
v 0.162216 1.575098 2.068307
v 1.786060 -0.740746 0.068307
v 1.786060 -0.740746 2.068307
v 2.132060 1.229098 0.068307
v 2.132060 1.229098 2.068307
vn -0.9849 0.1730 -0.0000
vn 0.1730 0.9849 -0.0000
vn 0.9849 -0.1730 -0.0000
vn -0.1730 -0.9849 -0.0000
vn -0.0000 -0.0000 -1.0000
vn -0.0000 -0.0000 1.0000
vt 0.375000 0.000000
vt 0.625000 0.000000
vt 0.625000 0.250000
vt 0.375000 0.250000
vt 0.625000 0.500000
vt 0.375000 0.500000
vt 0.625000 0.750000
vt 0.375000 0.750000
vt 0.625000 1.000000
vt 0.375000 1.000000
vt 0.125000 0.500000
vt 0.125000 0.750000
vt 0.875000 0.500000
vt 0.875000 0.750000
s 0
f 6/10/6 7/11/6 9/12/6 8/13/6
f 8/13/7 9/12/7 13/14/7 12/15/7
f 12/15/8 13/14/8 11/16/8 10/17/8
f 10/17/9 11/16/9 7/18/9 6/19/9
f 8/20/10 12/15/10 10/17/10 6/21/10
f 13/14/11 9/22/11 7/23/11 11/16/11
o beam_light
v -0.069484 3.945156 2.763862
v 0.069486 3.945156 2.763862
v -0.069486 3.945156 0.099186
v 0.069484 3.945156 0.099186
vn -0.0000 -1.0000 -0.0000
vt 0.000000 0.000000
vt 1.000000 0.000000
vt 1.000000 1.000000
vt 0.000000 1.000000
s 0
f 14/24/12 16/27/12 17/26/12 15/25/12
o parallel_bars
v -0.161720 6.414093 0.046724
v -0.161720 6.414093 3.083309
v -0.049770 6.414093 0.046724
v -0.049770 6.414093 3.083309
v -0.161720 1.773978 0.046724
v -0.161720 1.773978 3.083309
v -0.049770 1.773978 0.046724
v -0.049770 1.773978 3.083309
v -0.161720 1.773978 0.046724
v -0.161720 1.773978 3.083309
v -0.049770 1.773978 0.046724
v -0.049770 1.773978 3.083309
v -0.161720 6.414093 0.046724
v -0.161720 6.414093 3.083309
v -0.049770 6.414093 0.046724
v -0.049770 6.414093 3.083309
v 0.161720 6.414093 0.046724
v 0.161720 6.414093 3.083309
v 0.049770 6.414093 0.046724
v 0.049770 6.414093 3.083309
v 0.161720 1.773978 0.046724
v 0.161720 1.773978 3.083309
v 0.049770 1.773978 0.046724
v 0.049770 1.773978 3.083309
v 0.161720 1.773978 0.046724
v 0.161720 1.773978 3.083309
v 0.049770 1.773978 0.046724
v 0.049770 1.773978 3.083309
v 0.161720 6.414093 0.046724
v 0.161720 6.414093 3.083309
v 0.049770 6.414093 0.046724
v 0.049770 6.414093 3.083309
vn -0.0000 1.0000 -0.0000
vn 1.0000 -0.0000 -0.0000
vn -0.0000 -1.0000 -0.0000
vn -1.0000 -0.0000 -0.0000
vn -0.0000 -0.0000 -1.0000
vn -0.0000 -0.0000 1.0000
vt 0.375000 0.000000
vt 0.625000 0.000000
vt 0.625000 0.250000
vt 0.375000 0.250000
vt 0.625000 0.500000
vt 0.375000 0.500000
vt 0.625000 0.750000
vt 0.375000 0.750000
vt 0.625000 1.000000
vt 0.375000 1.000000
vt 0.125000 0.500000
vt 0.125000 0.750000
vt 0.875000 0.500000
vt 0.875000 0.750000
s 0
f 18/28/13 19/29/13 21/30/13 20/31/13
f 20/31/14 21/30/14 25/32/14 24/33/14
f 24/33/15 25/32/15 23/34/15 22/35/15
f 22/35/16 23/34/16 19/36/16 18/37/16
f 20/38/17 24/33/17 22/35/17 18/39/17
f 25/32/18 21/40/18 19/41/18 23/34/18
f 26/28/15 28/31/15 29/30/15 27/29/15
f 28/31/14 32/33/14 33/32/14 29/30/14
f 32/33/13 30/35/13 31/34/13 33/32/13
f 30/35/16 26/37/16 27/36/16 31/34/16
f 28/38/17 26/39/17 30/35/17 32/33/17
f 33/32/18 31/34/18 27/41/18 29/40/18
f 34/28/13 36/31/13 37/30/13 35/29/13
f 36/31/16 40/33/16 41/32/16 37/30/16
f 40/33/15 38/35/15 39/34/15 41/32/15
f 38/35/14 34/37/14 35/36/14 39/34/14
f 36/38/17 34/39/17 38/35/17 40/33/17
f 41/32/18 39/34/18 35/41/18 37/40/18
f 42/28/15 43/29/15 45/30/15 44/31/15
f 44/31/16 45/30/16 49/32/16 48/33/16
f 48/33/13 49/32/13 47/34/13 46/35/13
f 46/35/14 47/34/14 43/36/14 42/37/14
f 44/38/17 48/33/17 46/35/17 42/39/17
f 49/32/18 45/40/18 43/41/18 47/34/18
