# Blender 5.1.0
# www.blender.org
o flashlightholder_low
v -3.066330 0.246098 0.433708
v -3.745710 0.246099 0.294918
v -3.175920 0.246099 0.970154
v -3.855300 0.246100 0.831365
v -3.066331 -0.301428 0.433708
v -3.745711 -0.301427 0.294919
v -3.175920 -0.301427 0.970155
v -3.855301 -0.301426 0.831365
v -3.221883 0.475740 1.195148
v -3.020366 0.475738 0.208714
v -3.221884 -0.531067 1.195149
v -3.020368 -0.531069 0.208715
v -2.572908 0.363833 1.213509
v -2.416188 0.363832 0.446357
v -2.572909 -0.419163 1.213509
v -2.416189 -0.419164 0.446358
v -2.595306 0.475739 1.323150
v -2.393790 0.475738 0.336716
v -2.595307 -0.531068 1.323151
v -2.393791 -0.531070 0.336717
v -3.131846 0.363834 1.099324
v -2.975126 0.363833 0.332173
v -3.131847 -0.419162 1.099325
v -2.975127 -0.419163 0.332173
vn -0.0000 1.0000 -0.0000
vn -0.2002 -0.0000 0.9798
vn -0.0000 -1.0000 -0.0000
vn 0.2002 -0.0000 -0.9798
vn -0.9798 -0.0000 -0.2002
vn 0.9798 -0.0000 0.2002
vt 0.375000 0.000000
vt 0.625000 0.000000
vt 0.625000 0.250000
vt 0.375000 0.250000
vt 0.625000 0.500000
vt 0.375000 0.500000
vt 0.625000 0.750000
vt 0.375000 0.750000
vt 0.625000 1.000000
vt 0.375000 1.000000
vt 0.875000 0.500000
vt 0.875000 0.750000
vt 0.347213 0.722213
vt 0.152787 0.722213
vt 0.152787 0.527787
vt 0.125000 0.750000
vt 0.125000 0.500000
vt 0.347213 0.527787
s 0
f 1/1/1 2/2/1 4/3/1 3/4/1
f 3/4/2 4/3/2 8/5/2 7/6/2
f 7/6/3 8/5/3 6/7/3 5/8/3
f 5/8/4 6/7/4 2/9/4 1/10/4
f 3/4/5 7/6/5 11/6/5 9/4/5
f 8/5/5 4/11/5 2/12/5 6/7/5
f 12/8/4 10/10/4 18/10/4 20/8/4
f 1/1/5 3/4/5 9/4/5 10/1/5
f 7/6/5 5/8/5 12/8/5 11/6/5
f 5/8/5 1/10/5 10/10/5 12/8/5
f 16/13/2 14/14/2 22/14/2 24/13/2
f 9/4/2 11/6/2 19/6/2 17/4/2
f 11/6/3 12/8/3 20/8/3 19/6/3
f 10/1/1 9/4/1 17/4/1 18/1/1
f 13/15/6 14/14/6 18/16/6 17/17/6
f 15/18/6 13/15/6 17/17/6 19/6/6
f 16/13/6 15/18/6 19/6/6 20/8/6
f 14/14/6 16/13/6 20/8/6 18/16/6
f 21/15/6 23/18/6 24/13/6 22/14/6
f 13/15/4 15/18/4 23/18/4 21/15/4
f 15/18/1 16/13/1 24/13/1 23/18/1
f 14/14/3 13/15/3 21/15/3 22/14/3
o light_low
v -3.111363 -0.418776 1.131352
v -3.111362 0.418777 1.131351
v -2.943723 -0.418777 0.310748
v -2.943722 0.418776 0.310747
vn 0.9798 -0.0000 0.2002
vt 0.000000 0.000000
vt 1.000000 0.000000
vt 1.000000 1.000000
vt 0.000000 1.000000
s 0
f 25/19/7 27/22/7 28/21/7 26/20/7
o flashlightholder_high
v -2.655429 0.246097 3.335374
v -3.142697 0.246099 3.828719
v -2.265878 0.246098 3.720127
v -2.753146 0.246099 4.213472
v -2.655429 -0.301429 3.335375
v -3.142697 -0.301428 3.828721
v -2.265878 -0.301428 3.720128
v -2.753146 -0.301427 4.213473
v -2.102494 0.475739 3.881497
v -2.818812 0.475738 3.174003
v -2.102494 -0.531068 3.881500
v -2.818813 -0.531070 3.174005
v -1.732716 0.363832 3.347859
v -2.289798 0.363831 2.797639
v -1.732716 -0.419164 3.347861
v -2.289798 -0.419165 2.797641
v -1.653098 0.475738 3.426497
v -2.369416 0.475736 2.719002
v -1.653098 -0.531070 3.426499
v -2.369416 -0.531071 2.719004
v -2.133600 0.363833 3.753743
v -2.690682 0.363832 3.203523
v -2.133600 -0.419163 3.753745
v -2.690682 -0.419164 3.203525
vn -0.0000 1.0000 -0.0000
vn 0.7115 -0.0000 0.7027
vn -0.0000 -1.0000 -0.0000
vn -0.7115 -0.0000 -0.7027
vn -0.7027 -0.0000 0.7115
vn 0.7027 -0.0000 -0.7115
vt 0.375000 0.000000
vt 0.625000 0.000000
vt 0.625000 0.250000
vt 0.375000 0.250000
vt 0.625000 0.500000
vt 0.375000 0.500000
vt 0.625000 0.750000
vt 0.375000 0.750000
vt 0.625000 1.000000
vt 0.375000 1.000000
vt 0.875000 0.500000
vt 0.875000 0.750000
vt 0.347213 0.722213
vt 0.152787 0.722213
vt 0.152787 0.527787
vt 0.125000 0.750000
vt 0.125000 0.500000
vt 0.347213 0.527787
s 0
f 29/23/8 30/24/8 32/25/8 31/26/8
f 31/26/9 32/25/9 36/27/9 35/28/9
f 35/28/10 36/27/10 34/29/10 33/30/10
f 33/30/11 34/29/11 30/31/11 29/32/11
f 31/26/12 35/28/12 39/28/12 37/26/12
f 36/27/12 32/33/12 30/34/12 34/29/12
f 40/30/11 38/32/11 46/32/11 48/30/11
f 29/23/12 31/26/12 37/26/12 38/23/12
f 35/28/12 33/30/12 40/30/12 39/28/12
f 33/30/12 29/32/12 38/32/12 40/30/12
f 44/35/9 42/36/9 50/36/9 52/35/9
f 37/26/9 39/28/9 47/28/9 45/26/9
f 39/28/10 40/30/10 48/30/10 47/28/10
f 38/23/8 37/26/8 45/26/8 46/23/8
f 41/37/13 42/36/13 46/38/13 45/39/13
f 43/40/13 41/37/13 45/39/13 47/28/13
f 44/35/13 43/40/13 47/28/13 48/30/13
f 42/36/13 44/35/13 48/30/13 46/38/13
f 49/37/13 51/40/13 52/35/13 50/36/13
f 41/37/11 43/40/11 51/40/11 49/37/11
f 43/40/8 44/35/8 52/35/8 51/40/8
f 42/36/10 41/37/10 49/37/10 50/36/10
o light_high
v -2.095584 -0.418776 3.754075
v -2.095584 0.418777 3.754073
v -2.691481 -0.418777 3.165516
v -2.691481 0.418776 3.165514
vn 0.7027 -0.0000 -0.7115
vt 0.000000 0.000000
vt 1.000000 0.000000
vt 1.000000 1.000000
vt 0.000000 1.000000
s 0
f 53/41/14 55/44/14 56/43/14 54/42/14
