# Blender 5.1.0
# www.blender.org
o beam_light
v -0.093685 3.945156 2.763862
v 0.093687 3.945156 2.763862
v -0.093687 3.945156 0.099186
v 0.093685 3.945156 0.099186
vn -0.0000 -1.0000 -0.0000
vt 0.000000 0.000000
vt 1.000000 0.000000
vt 1.000000 1.000000
vt 0.000000 1.000000
s 0
f 1/1/1 3/4/1 4/3/1 2/2/1
o parallel_bars
v -0.161720 6.414093 0.046724
v -0.161720 6.414093 3.083309
v -0.079770 6.414093 0.046724
v -0.079770 6.414093 3.083309
v -0.161720 1.773978 0.046724
v -0.161720 1.773978 3.083309
v -0.079770 1.773978 0.046724
v -0.079770 1.773978 3.083309
v 0.161720 6.414093 0.046724
v 0.161720 6.414093 3.083309
v 0.079770 6.414093 0.046724
v 0.079770 6.414093 3.083309
v 0.161720 1.773978 0.046724
v 0.161720 1.773978 3.083309
v 0.079770 1.773978 0.046724
v 0.079770 1.773978 3.083309
vn -0.0000 1.0000 -0.0000
vn 1.0000 -0.0000 -0.0000
vn -0.0000 -1.0000 -0.0000
vn -1.0000 -0.0000 -0.0000
vn -0.0000 -0.0000 -1.0000
vn -0.0000 -0.0000 1.0000
vt 0.375000 0.000000
vt 0.625000 0.000000
vt 0.625000 0.250000
vt 0.375000 0.250000
vt 0.625000 0.500000
vt 0.375000 0.500000
vt 0.625000 0.750000
vt 0.375000 0.750000
vt 0.625000 1.000000
vt 0.375000 1.000000
vt 0.125000 0.500000
vt 0.125000 0.750000
vt 0.875000 0.500000
vt 0.875000 0.750000
s 0
f 5/5/2 6/6/2 8/7/2 7/8/2
f 7/8/3 8/7/3 12/9/3 11/10/3
f 11/10/4 12/9/4 10/11/4 9/12/4
f 9/12/5 10/11/5 6/13/5 5/14/5
f 7/15/6 11/10/6 9/12/6 5/16/6
f 12/9/7 8/17/7 6/18/7 10/11/7
f 13/5/2 15/8/2 16/7/2 14/6/2
f 15/8/5 19/10/5 20/9/5 16/7/5
f 19/10/4 17/12/4 18/11/4 20/9/4
f 17/12/3 13/14/3 14/13/3 18/11/3
f 15/15/6 13/16/6 17/12/6 19/10/6
f 20/9/7 18/11/7 14/18/7 16/17/7
