# Blender 5.1.0
# www.blender.org
o prism_angled
v 1.421052 0.591731 0.068307
v 1.421052 0.591731 2.068307
v -0.221851 0.043214 0.068307
v -0.221851 0.043214 2.068307
v 0.124571 1.740268 0.068307
v 0.124571 1.740268 2.068307
vn 0.3167 -0.9485 -0.0000
vn -0.9798 0.2000 -0.0000
vn -0.0000 -0.0000 1.0000
vn 0.6631 0.7485 -0.0000
vn -0.0000 -0.0000 -1.0000
vt 1.000000 0.500000
vt 1.000000 1.000000
vt 0.666667 1.000000
vt 0.666667 0.500000
vt 0.333333 1.000000
vt 0.333333 0.500000
vt 0.457846 0.130000
vt 0.250000 0.490000
vt 0.042154 0.130000
vt -0.000000 1.000000
vt -0.000000 0.500000
vt 0.750000 0.490000
vt 0.957846 0.130000
vt 0.542154 0.130000
s 0
f 1/1/1 2/2/1 4/3/1 3/4/1
f 3/4/2 4/3/2 6/5/2 5/6/2
f 4/7/3 2/8/3 6/9/3
f 5/6/4 6/5/4 2/10/4 1/11/4
f 1/12/5 3/13/5 5/14/5
