# Blender 5.1.0
# www.blender.org
o ground
v 10.556438 -10.230873 0.129091
v 10.556438 -10.230873 -0.129091
v -10.230873 -10.556438 0.129091
v -10.230873 -10.556438 -0.129091
v 10.230873 10.556438 0.129091
v 10.230873 10.556438 -0.129091
v -10.556438 10.230873 0.129091
v -10.556438 10.230873 -0.129091
vn -0.0000 -0.0000 1.0000
vn -0.9999 -0.0157 -0.0000
vn -0.0157 0.9999 -0.0000
vn -0.0000 -0.0000 -1.0000
vn 0.0157 -0.9999 -0.0000
vn 0.9999 0.0157 -0.0000
vt 0.625000 0.500000
vt 0.875000 0.500000
vt 0.875000 0.750000
vt 0.625000 0.750000
vt 0.375000 0.750000
vt 0.625000 1.000000
vt 0.375000 1.000000
vt 0.375000 0.000000
vt 0.625000 0.000000
vt 0.625000 0.250000
vt 0.375000 0.250000
vt 0.125000 0.500000
vt 0.375000 0.500000
vt 0.125000 0.750000
s 0
f 1/1/1 5/2/1 7/3/1 3/4/1
f 4/5/2 3/4/2 7/6/2 8/7/2
f 8/8/3 7/9/3 5/10/3 6/11/3
f 6/12/4 2/13/4 4/5/4 8/14/4
f 2/13/5 1/1/5 3/4/5 4/5/5
f 6/11/6 5/10/6 1/1/6 2/13/6
o prism
v 1.175245 -1.175245 0.107899
v -1.175245 -1.175245 0.107899
v -1.175245 1.175245 0.107899
v 1.175245 1.175245 0.107899
v 0.000000 0.000000 2.107899
vn -0.0000 -0.8622 0.5066
vn -0.8622 -0.0000 0.5066
vn -0.0000 -0.0000 -1.0000
vn -0.0000 0.8622 0.5066
vn 0.8622 -0.0000 0.5066
vt 0.250000 0.490000
vt 0.250000 0.250000
vt 0.490000 0.250000
vt 0.250000 0.010000
vt 0.750000 0.490000
vt 0.990000 0.250000
vt 0.750000 0.010000
vt 0.510000 0.250000
vt 0.010000 0.250000
s 0
f 9/15/7 13/16/7 10/17/7
f 10/17/8 13/16/8 11/18/8
f 9/19/9 10/20/9 11/21/9 12/22/9
f 11/18/10 13/16/10 12/23/10
f 12/23/11 13/16/11 9/15/11
o flashlightholder
v 0.246100 4.040672 0.987970
v 0.246100 4.734084 0.987970
v 0.246100 4.040672 1.535496
v 0.246100 4.734084 1.535496
v -0.301426 4.040672 0.987970
v -0.301426 4.734084 0.987970
v -0.301426 4.040672 1.535496
v -0.301426 4.734084 1.535496
v 0.475741 4.040672 1.765136
v 0.475740 4.040672 0.758329
v -0.531066 4.040672 1.765137
v -0.531067 4.040672 0.758330
v 0.363835 3.401154 1.653231
v 0.363835 3.401154 0.870235
v -0.419161 3.401154 1.653231
v -0.419161 3.401154 0.870235
v 0.475741 3.401154 1.765136
v 0.475740 3.401154 0.758329
v -0.531066 3.401154 1.765137
v -0.531067 3.401154 0.758330
v 0.363835 3.971636 1.653231
v 0.363835 3.971636 0.870235
v -0.419161 3.971636 1.653231
v -0.419161 3.971636 0.870235
vn 1.0000 -0.0000 -0.0000
vn -0.0000 -0.0000 1.0000
vn -1.0000 -0.0000 -0.0000
vn -0.0000 -0.0000 -1.0000
vn -0.0000 1.0000 -0.0000
vn -0.0000 -1.0000 -0.0000
vt 0.375000 0.000000
vt 0.625000 0.000000
vt 0.625000 0.250000
vt 0.375000 0.250000
vt 0.625000 0.500000
vt 0.375000 0.500000
vt 0.625000 0.750000
vt 0.375000 0.750000
vt 0.625000 1.000000
vt 0.375000 1.000000
vt 0.875000 0.500000
vt 0.875000 0.750000
vt 0.347213 0.722213
vt 0.152787 0.722213
vt 0.152787 0.527787
vt 0.125000 0.750000
vt 0.125000 0.500000
vt 0.347213 0.527787
s 0
f 14/24/12 15/25/12 17/26/12 16/27/12
f 16/27/13 17/26/13 21/28/13 20/29/13
f 20/29/14 21/28/14 19/30/14 18/31/14
f 18/31/15 19/30/15 15/32/15 14/33/15
f 16/27/16 20/29/16 24/29/16 22/27/16
f 21/28/16 17/34/16 15/35/16 19/30/16
f 25/31/15 23/33/15 31/33/15 33/31/15
f 14/24/16 16/27/16 22/27/16 23/24/16
f 20/29/16 18/31/16 25/31/16 24/29/16
f 18/31/16 14/33/16 23/33/16 25/31/16
f 29/36/13 27/37/13 35/37/13 37/36/13
f 22/27/13 24/29/13 32/29/13 30/27/13
f 24/29/14 25/31/14 33/31/14 32/29/14
f 23/24/12 22/27/12 30/27/12 31/24/12
f 26/38/17 27/37/17 31/39/17 30/40/17
f 28/41/17 26/38/17 30/40/17 32/29/17
f 29/36/17 28/41/17 32/29/17 33/31/17
f 27/37/17 29/36/17 33/31/17 31/39/17
f 34/38/17 36/41/17 37/36/17 35/37/17
f 26/38/15 28/41/15 36/41/15 34/38/15
f 28/41/12 29/36/12 37/36/12 36/41/12
f 27/37/14 26/38/14 34/38/14 35/37/14
o light
v -0.418776 3.945156 1.680510
v 0.418777 3.945156 1.680509
v -0.418777 3.945156 0.842957
v 0.418776 3.945156 0.842956
vn -0.0000 -1.0000 -0.0000
vt 0.000000 0.000000
vt 1.000000 0.000000
vt 1.000000 1.000000
vt 0.000000 1.000000
s 0
f 38/42/18 40/45/18 41/44/18 39/43/18
