# Blender 5.1.0
# www.blender.org
o wall_with_hole
v -2.351906 2.296981 -1.079582
v -2.351906 2.296981 3.670352
v 2.398027 2.296981 -1.079582
v 2.398027 2.296981 3.670352
v -2.351906 2.245935 -1.079582
v -2.351906 2.245935 3.670352
v 2.398027 2.245935 -1.079582
v 2.398027 2.245935 3.670352
v -0.046947 2.296981 1.225377
v 0.093068 2.296981 1.365392
v -0.046947 2.296981 1.365392
v 0.093068 2.296981 1.225377
v 0.093068 2.245935 1.225377
v -0.046947 2.245935 1.365392
v 0.093068 2.245935 1.365392
v -0.046947 2.245935 1.225377
vn -0.0000 1.0000 -0.0000
vn 1.0000 -0.0000 -0.0000
vn -0.0000 -1.0000 -0.0000
vn -1.0000 -0.0000 -0.0000
vn -0.0000 -0.0000 -1.0000
vn -0.0000 -0.0000 1.0000
vt 0.625000 0.250000
vt 0.496315 0.128685
vt 0.503685 0.128685
vt 0.375000 0.000000
vt 0.503685 0.121315
vt 0.496315 0.121315
vt 0.375000 0.500000
vt 0.375000 0.250000
vt 0.625000 0.500000
vt 0.625000 0.750000
vt 0.503685 0.621315
vt 0.375000 0.750000
vt 0.496315 0.621315
vt 0.496315 0.628685
vt 0.375000 1.000000
vt 0.125000 0.750000
vt 0.125000 0.500000
vt 0.875000 0.500000
vt 0.375000 0.352614
vt 0.625000 0.397386
vt 0.625000 0.352615
vt 0.375000 0.897386
vt 0.625000 0.852615
vt 0.375000 0.852615
vt 0.227614 0.750000
vt 0.272386 0.500000
vt 0.227615 0.500000
vt 0.727615 0.500000
vt 0.772386 0.750000
vt 0.772386 0.500000
vt 0.625000 0.000000
vt 0.503685 0.628685
vt 0.625000 1.000000
vt 0.875000 0.750000
vt 0.375000 0.397386
vt 0.625000 0.897385
vt 0.272386 0.750000
vt 0.727614 0.750000
s 0
f 4/1/1 12/2/1 10/3/1
f 1/4/1 11/5/1 9/6/1
f 4/1/2 7/7/2 3/8/2
f 8/9/3 6/10/3 15/11/3
f 5/12/3 13/13/3 16/14/3
f 6/10/4 1/15/4 5/12/4
f 7/7/5 1/16/5 3/17/5
f 4/18/6 6/10/6 8/9/6
f 12/19/4 15/20/4 10/21/4
f 9/22/2 14/23/2 16/24/2
f 9/25/6 13/26/6 12/27/6
f 15/28/5 11/29/5 10/30/5
f 10/3/1 11/5/1 2/31/1
f 4/1/1 3/8/1 12/2/1
f 10/3/1 2/31/1 4/1/1
f 9/6/1 12/2/1 3/8/1
f 1/4/1 2/31/1 11/5/1
f 9/6/1 3/8/1 1/4/1
f 4/1/2 8/9/2 7/7/2
f 13/13/3 7/7/3 8/9/3
f 6/10/3 5/12/3 16/14/3
f 6/10/3 16/14/3 14/32/3
f 15/11/3 13/13/3 8/9/3
f 6/10/3 14/32/3 15/11/3
f 5/12/3 7/7/3 13/13/3
f 6/10/4 2/33/4 1/15/4
f 7/7/5 5/12/5 1/16/5
f 4/18/6 2/34/6 6/10/6
f 12/19/4 13/35/4 15/20/4
f 9/22/2 11/36/2 14/23/2
f 9/25/6 16/37/6 13/26/6
f 15/28/5 14/38/5 11/29/5
